# xmcd
#
# Track frame offsets: 
#        150
#        21140
#        39070
#        52820
#        72732
#        93690
#        121317
#        139887
#        163662
#        185485
#
# Disc length: 2736 seconds
#
# Revision: 0
# Processed by: cddbd v1.5.2PL0 Copyright (c) Steve Scherf et al.
# Submitted via: ExactAudioCopy v0.99pb5
#
DISCID=870aae0a
DTITLE=Tam ca ao trang - Xa roi tuoi tho
DYEAR=2000
DGENRE=Pop
TTITLE0=Dau yeu tinh dau
TTITLE1=Yesterday
TTITLE2=Goc pho diu dang
TTITLE3=Xe dap oi
TTITLE4=Poupee de cire poupee de son
TTITLE5=Khi ta xa nhau
TTITLE6=Trai tim that tha
TTITLE7=Tuoi da buon
TTITLE8=Co biet khong anh
TTITLE9=Xa roi tuoi tho
EXTD=
EXTT0=
EXTT1=
EXTT2=
EXTT3=
EXTT4=
EXTT5=
EXTT6=
EXTT7=
EXTT8=
EXTT9=
PLAYORDER=
